<svg width="108" height="100" viewBox="0 0 108 100" fill="none" xmlns="http://www.w3.org/2000/svg">
<rect width="108" height="100" rx="50" fill="#2E7D32"/>
<path d="M84.2344 21.6719C86.4609 26.7109 87.75 32.8047 87.75 38.6641C87.75 58.8203 74.7422 75.3438 56.3438 76.6328C46.8516 77.6875 39.7031 72.7656 35.8359 67.6094C29.8594 72.6484 27.6328 77.8047 27.3984 78.2734C26.5781 80.1484 24.4688 81.0859 22.4766 80.2656C20.6016 79.4453 19.6641 77.3359 20.4844 75.3438C23.2969 68.6641 35.7188 50.5 65.25 50.5C66.1875 50.5 67.125 49.6797 67.125 48.625C67.125 47.6875 66.1875 46.75 65.25 46.75C49.8984 46.75 39.1172 51.3203 31.6172 56.7109C31.5 55.8906 31.5 55.0703 31.5 54.25C31.5 41.8281 41.5781 31.75 54 31.75H63.375C70.7578 31.75 77.2031 27.8828 80.8359 21.5547C81.6562 20.1484 83.5312 20.2656 84.2344 21.6719Z" fill="white"/>
</svg>
